<mxfile host="Electron" agent="Mozilla/5.0 (Windows NT 10.0; Win64; x64) AppleWebKit/537.36 (KHTML, like Gecko) draw.io/24.7.17 Chrome/128.0.6613.36 Electron/32.0.1 Safari/537.36" version="24.7.17" pages="2">
  <diagram id="t4iyJ-2K-X9mLFhjT-cI" name="페이지-1">
    <mxGraphModel dx="1834" dy="1294" grid="1" gridSize="10" guides="1" tooltips="1" connect="1" arrows="1" fold="1" page="0" pageScale="1" pageWidth="3300" pageHeight="4681" math="0" shadow="0">
      <root>
        <mxCell id="0" />
        <mxCell id="1" parent="0" />
        <mxCell id="4U73mpekZpH4oj2P53OJ-3" value="" style="edgeStyle=none;curved=1;rounded=0;orthogonalLoop=1;jettySize=auto;html=1;fontSize=12;startSize=8;endSize=8;" parent="1" source="3Y2qNAMYO-wNbByZRbtN-3" target="4U73mpekZpH4oj2P53OJ-2" edge="1">
          <mxGeometry relative="1" as="geometry" />
        </mxCell>
        <mxCell id="3Y2qNAMYO-wNbByZRbtN-3" value="시작" style="strokeWidth=2;html=1;shape=mxgraph.flowchart.terminator;whiteSpace=wrap;" parent="1" vertex="1">
          <mxGeometry x="-120" y="-150" width="100" height="60" as="geometry" />
        </mxCell>
        <mxCell id="3Y2qNAMYO-wNbByZRbtN-4" value="끝" style="strokeWidth=2;html=1;shape=mxgraph.flowchart.terminator;whiteSpace=wrap;" parent="1" vertex="1">
          <mxGeometry x="-122.5" y="850" width="100" height="60" as="geometry" />
        </mxCell>
        <mxCell id="3Y2qNAMYO-wNbByZRbtN-11" value="" style="edgeStyle=none;curved=1;rounded=0;orthogonalLoop=1;jettySize=auto;html=1;fontSize=12;startSize=8;endSize=8;" parent="1" edge="1">
          <mxGeometry relative="1" as="geometry">
            <mxPoint x="-17.5" y="140" as="sourcePoint" />
          </mxGeometry>
        </mxCell>
        <mxCell id="3Y2qNAMYO-wNbByZRbtN-15" value="" style="edgeStyle=none;curved=1;rounded=0;orthogonalLoop=1;jettySize=auto;html=1;fontSize=12;startSize=8;endSize=8;" parent="1" edge="1">
          <mxGeometry relative="1" as="geometry">
            <mxPoint x="-67.5" y="190" as="sourcePoint" />
          </mxGeometry>
        </mxCell>
        <mxCell id="3Y2qNAMYO-wNbByZRbtN-17" value="" style="edgeStyle=none;curved=1;rounded=0;orthogonalLoop=1;jettySize=auto;html=1;fontSize=12;startSize=8;endSize=8;" parent="1" edge="1">
          <mxGeometry relative="1" as="geometry">
            <mxPoint x="-67.99999999999977" y="310" as="sourcePoint" />
          </mxGeometry>
        </mxCell>
        <mxCell id="3Y2qNAMYO-wNbByZRbtN-19" value="" style="edgeStyle=none;curved=1;rounded=0;orthogonalLoop=1;jettySize=auto;html=1;fontSize=12;startSize=8;endSize=8;" parent="1" edge="1">
          <mxGeometry relative="1" as="geometry">
            <mxPoint x="-20" y="430" as="sourcePoint" />
          </mxGeometry>
        </mxCell>
        <mxCell id="3Y2qNAMYO-wNbByZRbtN-52" value="05" style="shape=umlFrame;whiteSpace=wrap;html=1;pointerEvents=0;width=80;height=30;" parent="1" vertex="1">
          <mxGeometry x="-380" y="-170" width="660" height="1180" as="geometry" />
        </mxCell>
        <mxCell id="4U73mpekZpH4oj2P53OJ-5" value="" style="edgeStyle=none;curved=1;rounded=0;orthogonalLoop=1;jettySize=auto;html=1;fontSize=12;startSize=8;endSize=8;" parent="1" source="4U73mpekZpH4oj2P53OJ-2" target="4U73mpekZpH4oj2P53OJ-4" edge="1">
          <mxGeometry relative="1" as="geometry" />
        </mxCell>
        <mxCell id="4U73mpekZpH4oj2P53OJ-2" value="n 입력&lt;div&gt;m 입력&lt;/div&gt;" style="shape=parallelogram;perimeter=parallelogramPerimeter;whiteSpace=wrap;html=1;fixedSize=1;strokeWidth=2;" parent="1" vertex="1">
          <mxGeometry x="-132.5" y="-10" width="120" height="60" as="geometry" />
        </mxCell>
        <mxCell id="4U73mpekZpH4oj2P53OJ-7" value="" style="edgeStyle=none;curved=1;rounded=0;orthogonalLoop=1;jettySize=auto;html=1;fontSize=12;startSize=8;endSize=8;" parent="1" source="4U73mpekZpH4oj2P53OJ-4" target="4U73mpekZpH4oj2P53OJ-6" edge="1">
          <mxGeometry relative="1" as="geometry" />
        </mxCell>
        <mxCell id="4U73mpekZpH4oj2P53OJ-4" value="n&amp;gt;=m" style="rhombus;whiteSpace=wrap;html=1;strokeWidth=2;" parent="1" vertex="1">
          <mxGeometry x="-112.5" y="100" width="80" height="80" as="geometry" />
        </mxCell>
        <mxCell id="4U73mpekZpH4oj2P53OJ-10" value="" style="edgeStyle=none;curved=1;rounded=0;orthogonalLoop=1;jettySize=auto;html=1;fontSize=12;startSize=8;endSize=8;" parent="1" source="4U73mpekZpH4oj2P53OJ-6" target="4U73mpekZpH4oj2P53OJ-9" edge="1">
          <mxGeometry relative="1" as="geometry" />
        </mxCell>
        <mxCell id="4U73mpekZpH4oj2P53OJ-6" value="tmp = n&lt;div&gt;n = m&lt;/div&gt;&lt;div&gt;m = tmp&lt;/div&gt;" style="whiteSpace=wrap;html=1;strokeWidth=2;" parent="1" vertex="1">
          <mxGeometry x="-132.5" y="240" width="120" height="60" as="geometry" />
        </mxCell>
        <mxCell id="4U73mpekZpH4oj2P53OJ-8" value="YES" style="text;html=1;align=center;verticalAlign=middle;resizable=0;points=[];autosize=1;strokeColor=none;fillColor=none;fontSize=16;" parent="1" vertex="1">
          <mxGeometry x="-80" y="180" width="60" height="30" as="geometry" />
        </mxCell>
        <mxCell id="4U73mpekZpH4oj2P53OJ-14" value="" style="edgeStyle=none;curved=1;rounded=0;orthogonalLoop=1;jettySize=auto;html=1;fontSize=12;startSize=8;endSize=8;" parent="1" source="4U73mpekZpH4oj2P53OJ-9" target="4U73mpekZpH4oj2P53OJ-13" edge="1">
          <mxGeometry relative="1" as="geometry" />
        </mxCell>
        <mxCell id="4U73mpekZpH4oj2P53OJ-9" value="i = n&lt;div&gt;sum = 0&lt;/div&gt;" style="whiteSpace=wrap;html=1;strokeWidth=2;" parent="1" vertex="1">
          <mxGeometry x="-132.5" y="350" width="120" height="60" as="geometry" />
        </mxCell>
        <mxCell id="4U73mpekZpH4oj2P53OJ-11" value="" style="edgeStyle=none;curved=0;rounded=0;orthogonalLoop=1;jettySize=auto;html=1;fontSize=12;startSize=8;endSize=8;exitX=0;exitY=0.5;exitDx=0;exitDy=0;entryX=0;entryY=0.5;entryDx=0;entryDy=0;" parent="1" source="4U73mpekZpH4oj2P53OJ-4" target="4U73mpekZpH4oj2P53OJ-9" edge="1">
          <mxGeometry relative="1" as="geometry">
            <mxPoint x="-62" y="190" as="sourcePoint" />
            <mxPoint x="-62" y="250" as="targetPoint" />
            <Array as="points">
              <mxPoint x="-240" y="140" />
              <mxPoint x="-240" y="380" />
            </Array>
          </mxGeometry>
        </mxCell>
        <mxCell id="4U73mpekZpH4oj2P53OJ-12" value="NO" style="text;html=1;align=center;verticalAlign=middle;resizable=0;points=[];autosize=1;strokeColor=none;fillColor=none;fontSize=16;" parent="1" vertex="1">
          <mxGeometry x="-150" y="110" width="50" height="30" as="geometry" />
        </mxCell>
        <mxCell id="4U73mpekZpH4oj2P53OJ-16" value="" style="edgeStyle=none;curved=1;rounded=0;orthogonalLoop=1;jettySize=auto;html=1;fontSize=12;startSize=8;endSize=8;" parent="1" source="4U73mpekZpH4oj2P53OJ-13" target="4U73mpekZpH4oj2P53OJ-15" edge="1">
          <mxGeometry relative="1" as="geometry" />
        </mxCell>
        <mxCell id="4U73mpekZpH4oj2P53OJ-13" value="i&amp;lt;=m" style="rhombus;whiteSpace=wrap;html=1;strokeWidth=2;" parent="1" vertex="1">
          <mxGeometry x="-112.5" y="460" width="80" height="80" as="geometry" />
        </mxCell>
        <mxCell id="4U73mpekZpH4oj2P53OJ-15" value="sum += i&lt;div&gt;i++&lt;/div&gt;" style="whiteSpace=wrap;html=1;strokeWidth=2;" parent="1" vertex="1">
          <mxGeometry x="-132.5" y="610" width="120" height="60" as="geometry" />
        </mxCell>
        <mxCell id="4U73mpekZpH4oj2P53OJ-17" value="" style="edgeStyle=none;curved=0;rounded=0;orthogonalLoop=1;jettySize=auto;html=1;fontSize=12;startSize=8;endSize=8;exitX=1;exitY=0.5;exitDx=0;exitDy=0;entryX=0.99;entryY=0.548;entryDx=0;entryDy=0;entryPerimeter=0;" parent="1" source="4U73mpekZpH4oj2P53OJ-15" target="4U73mpekZpH4oj2P53OJ-13" edge="1">
          <mxGeometry relative="1" as="geometry">
            <mxPoint x="-62" y="420" as="sourcePoint" />
            <mxPoint x="-62" y="470" as="targetPoint" />
            <Array as="points">
              <mxPoint x="40" y="640" />
              <mxPoint x="40" y="504" />
            </Array>
          </mxGeometry>
        </mxCell>
        <mxCell id="4U73mpekZpH4oj2P53OJ-18" value="YES" style="text;html=1;align=center;verticalAlign=middle;resizable=0;points=[];autosize=1;strokeColor=none;fillColor=none;fontSize=16;" parent="1" vertex="1">
          <mxGeometry x="-82.5" y="540" width="60" height="30" as="geometry" />
        </mxCell>
        <mxCell id="4U73mpekZpH4oj2P53OJ-24" value="" style="edgeStyle=none;curved=1;rounded=0;orthogonalLoop=1;jettySize=auto;html=1;fontSize=12;startSize=8;endSize=8;" parent="1" source="4U73mpekZpH4oj2P53OJ-20" target="3Y2qNAMYO-wNbByZRbtN-4" edge="1">
          <mxGeometry relative="1" as="geometry" />
        </mxCell>
        <mxCell id="4U73mpekZpH4oj2P53OJ-20" value="SUM 출력" style="shape=parallelogram;perimeter=parallelogramPerimeter;whiteSpace=wrap;html=1;fixedSize=1;strokeWidth=2;" parent="1" vertex="1">
          <mxGeometry x="-132.5" y="730" width="120" height="60" as="geometry" />
        </mxCell>
        <mxCell id="4U73mpekZpH4oj2P53OJ-22" value="" style="edgeStyle=none;curved=0;rounded=0;orthogonalLoop=1;jettySize=auto;html=1;fontSize=12;startSize=8;endSize=8;exitX=0;exitY=0.5;exitDx=0;exitDy=0;entryX=0.089;entryY=0.44;entryDx=0;entryDy=0;entryPerimeter=0;" parent="1" source="4U73mpekZpH4oj2P53OJ-13" target="4U73mpekZpH4oj2P53OJ-20" edge="1">
          <mxGeometry relative="1" as="geometry">
            <mxPoint x="-62" y="550" as="sourcePoint" />
            <mxPoint x="-62" y="620" as="targetPoint" />
            <Array as="points">
              <mxPoint x="-200" y="500" />
              <mxPoint x="-200" y="756" />
            </Array>
          </mxGeometry>
        </mxCell>
        <mxCell id="4U73mpekZpH4oj2P53OJ-23" value="NO" style="text;html=1;align=center;verticalAlign=middle;resizable=0;points=[];autosize=1;strokeColor=none;fillColor=none;fontSize=16;" parent="1" vertex="1">
          <mxGeometry x="-151" y="471" width="50" height="30" as="geometry" />
        </mxCell>
      </root>
    </mxGraphModel>
  </diagram>
  <diagram id="RhlSDF2DxGizMXsuizmZ" name="페이지-2">
    <mxGraphModel dx="4385" dy="3035" grid="0" gridSize="10" guides="1" tooltips="1" connect="1" arrows="1" fold="1" page="0" pageScale="1" pageWidth="3300" pageHeight="4681" math="0" shadow="0">
      <root>
        <mxCell id="0" />
        <mxCell id="1" parent="0" />
        <mxCell id="xFlGPyU-pBzjdn1cpenI-1" value="&lt;div style=&quot;padding: 0px 0px 0px 2px;&quot;&gt;&lt;div style=&quot;font-family: Consolas; font-size: 20pt; white-space-collapse: preserve;&quot;&gt;&lt;p style=&quot;margin:0;&quot;&gt;&#x9;&#x9;&lt;span style=&quot;color:#7f0055;font-weight:bold;&quot;&gt;int&lt;/span&gt; &lt;span style=&quot;color:#6a3e3e;&quot;&gt;i&lt;/span&gt;=0;&lt;/p&gt;&lt;p style=&quot;margin:0;&quot;&gt;&#x9;&#x9;&lt;span style=&quot;color:#7f0055;font-weight:bold;&quot;&gt;while&lt;/span&gt;(&lt;span style=&quot;color:#6a3e3e;&quot;&gt;i&lt;/span&gt;&amp;lt;4) {&lt;/p&gt;&lt;p style=&quot;margin:0;&quot;&gt;&#x9;&#x9;&#x9;&lt;span style=&quot;color:#3f7f5f;&quot;&gt;//공백&lt;/span&gt;&lt;/p&gt;&lt;p style=&quot;margin:0;&quot;&gt;&#x9;&#x9;&#x9;&lt;span style=&quot;color:#7f0055;font-weight:bold;&quot;&gt;int&lt;/span&gt; &lt;span style=&quot;color:#6a3e3e;&quot;&gt;j&lt;/span&gt;=0;&lt;/p&gt;&lt;p style=&quot;margin:0;&quot;&gt;&#x9;&#x9;&#x9;&lt;span style=&quot;color:#7f0055;font-weight:bold;&quot;&gt;while&lt;/span&gt;(&lt;span style=&quot;color:#6a3e3e;&quot;&gt;j&lt;/span&gt;&amp;lt;3-&lt;span style=&quot;color:#6a3e3e;&quot;&gt;i&lt;/span&gt;) {&lt;/p&gt;&lt;p style=&quot;margin:0;&quot;&gt;&#x9;&#x9;&#x9;&#x9;System.&lt;span style=&quot;color:#0000c0;font-style:italic;font-weight:bold;&quot;&gt;out&lt;/span&gt;.print(&lt;span style=&quot;color:#2a00ff;&quot;&gt;&quot; &quot;&lt;/span&gt;);&lt;/p&gt;&lt;p style=&quot;margin:0;&quot;&gt;&#x9;&#x9;&#x9;&#x9;&lt;span style=&quot;color:#6a3e3e;&quot;&gt;j&lt;/span&gt;++;&lt;/p&gt;&lt;p style=&quot;margin:0;&quot;&gt;&#x9;&#x9;&#x9;}&lt;/p&gt;&lt;p style=&quot;margin:0;&quot;&gt;&#x9;&#x9;&#x9;&lt;span style=&quot;color:#3f7f5f;&quot;&gt;//별&lt;/span&gt;&lt;/p&gt;&lt;p style=&quot;margin:0;&quot;&gt;&#x9;&#x9;&#x9;&lt;span style=&quot;color:#7f0055;font-weight:bold;&quot;&gt;int&lt;/span&gt; &lt;span style=&quot;color:#6a3e3e;&quot;&gt;k&lt;/span&gt;=0;&lt;/p&gt;&lt;p style=&quot;margin:0;&quot;&gt;&#x9;&#x9;&#x9;&lt;span style=&quot;color:#7f0055;font-weight:bold;&quot;&gt;while&lt;/span&gt;(&lt;span style=&quot;color:#6a3e3e;&quot;&gt;k&lt;/span&gt;&amp;lt;=2*&lt;span style=&quot;color:#6a3e3e;&quot;&gt;i&lt;/span&gt;) {&lt;/p&gt;&lt;p style=&quot;margin:0;&quot;&gt;&#x9;&#x9;&#x9;&#x9;System.&lt;span style=&quot;color:#0000c0;font-style:italic;font-weight:bold;&quot;&gt;out&lt;/span&gt;.print(&lt;span style=&quot;color:#2a00ff;&quot;&gt;&quot;*&quot;&lt;/span&gt;);&lt;/p&gt;&lt;p style=&quot;margin:0;&quot;&gt;&#x9;&#x9;&#x9;&#x9;&lt;span style=&quot;color:#6a3e3e;&quot;&gt;k&lt;/span&gt;++;&lt;/p&gt;&lt;p style=&quot;margin:0;&quot;&gt;&#x9;&#x9;&#x9;}&lt;/p&gt;&lt;p style=&quot;margin:0;&quot;&gt;&#x9;&#x9;&#x9;System.&lt;span style=&quot;color:#0000c0;font-style:italic;font-weight:bold;&quot;&gt;out&lt;/span&gt;.println();&lt;/p&gt;&lt;p style=&quot;margin:0;&quot;&gt;&#x9;&#x9;&#x9;&lt;span style=&quot;color:#6a3e3e;&quot;&gt;i&lt;/span&gt;++;&lt;/p&gt;&lt;p style=&quot;margin:0;&quot;&gt;&#x9;&#x9;}&lt;/p&gt;&lt;/div&gt;&lt;/div&gt;" style="text;html=1;align=left;verticalAlign=middle;resizable=0;points=[];autosize=1;strokeColor=none;fillColor=none;fontSize=16;" vertex="1" parent="1">
          <mxGeometry x="-780" y="-476" width="812" height="556" as="geometry" />
        </mxCell>
        <mxCell id="xFlGPyU-pBzjdn1cpenI-2" value="frame" style="shape=umlFrame;whiteSpace=wrap;html=1;pointerEvents=0;" vertex="1" parent="1">
          <mxGeometry x="52" y="-538" width="642" height="1820" as="geometry" />
        </mxCell>
        <mxCell id="xFlGPyU-pBzjdn1cpenI-6" value="" style="edgeStyle=none;curved=1;rounded=0;orthogonalLoop=1;jettySize=auto;html=1;fontSize=12;startSize=8;endSize=8;" edge="1" parent="1" source="xFlGPyU-pBzjdn1cpenI-3" target="xFlGPyU-pBzjdn1cpenI-5">
          <mxGeometry relative="1" as="geometry" />
        </mxCell>
        <mxCell id="xFlGPyU-pBzjdn1cpenI-3" value="시작" style="strokeWidth=2;html=1;shape=mxgraph.flowchart.terminator;whiteSpace=wrap;" vertex="1" parent="1">
          <mxGeometry x="320" y="-507" width="100" height="60" as="geometry" />
        </mxCell>
        <mxCell id="xFlGPyU-pBzjdn1cpenI-4" value="종료" style="strokeWidth=2;html=1;shape=mxgraph.flowchart.terminator;whiteSpace=wrap;" vertex="1" parent="1">
          <mxGeometry x="320" y="1175" width="100" height="60" as="geometry" />
        </mxCell>
        <mxCell id="xFlGPyU-pBzjdn1cpenI-8" value="" style="edgeStyle=none;curved=1;rounded=0;orthogonalLoop=1;jettySize=auto;html=1;fontSize=12;startSize=8;endSize=8;" edge="1" parent="1" source="xFlGPyU-pBzjdn1cpenI-5" target="xFlGPyU-pBzjdn1cpenI-7">
          <mxGeometry relative="1" as="geometry" />
        </mxCell>
        <mxCell id="xFlGPyU-pBzjdn1cpenI-5" value="i = 0" style="whiteSpace=wrap;html=1;strokeWidth=2;" vertex="1" parent="1">
          <mxGeometry x="310" y="-397" width="120" height="60" as="geometry" />
        </mxCell>
        <mxCell id="xFlGPyU-pBzjdn1cpenI-11" value="" style="edgeStyle=none;curved=1;rounded=0;orthogonalLoop=1;jettySize=auto;html=1;fontSize=12;startSize=8;endSize=8;" edge="1" parent="1" source="xFlGPyU-pBzjdn1cpenI-7" target="xFlGPyU-pBzjdn1cpenI-10">
          <mxGeometry relative="1" as="geometry" />
        </mxCell>
        <mxCell id="xFlGPyU-pBzjdn1cpenI-42" value="" style="edgeStyle=none;curved=1;rounded=0;orthogonalLoop=1;jettySize=auto;html=1;fontSize=12;startSize=8;endSize=8;" edge="1" parent="1" source="xFlGPyU-pBzjdn1cpenI-7" target="xFlGPyU-pBzjdn1cpenI-10">
          <mxGeometry relative="1" as="geometry" />
        </mxCell>
        <mxCell id="xFlGPyU-pBzjdn1cpenI-7" value="i &amp;lt; 4" style="rhombus;whiteSpace=wrap;html=1;strokeWidth=2;" vertex="1" parent="1">
          <mxGeometry x="330" y="-288" width="80" height="80" as="geometry" />
        </mxCell>
        <mxCell id="xFlGPyU-pBzjdn1cpenI-14" value="" style="edgeStyle=none;curved=1;rounded=0;orthogonalLoop=1;jettySize=auto;html=1;fontSize=12;startSize=8;endSize=8;" edge="1" parent="1" source="xFlGPyU-pBzjdn1cpenI-10" target="xFlGPyU-pBzjdn1cpenI-13">
          <mxGeometry relative="1" as="geometry" />
        </mxCell>
        <mxCell id="xFlGPyU-pBzjdn1cpenI-10" value="j = 0" style="whiteSpace=wrap;html=1;strokeWidth=2;" vertex="1" parent="1">
          <mxGeometry x="310" y="-146" width="120" height="60" as="geometry" />
        </mxCell>
        <mxCell id="xFlGPyU-pBzjdn1cpenI-12" value="YES" style="text;html=1;align=center;verticalAlign=middle;resizable=0;points=[];autosize=1;strokeColor=none;fillColor=none;fontSize=16;" vertex="1" parent="1">
          <mxGeometry x="374" y="-205" width="50" height="31" as="geometry" />
        </mxCell>
        <mxCell id="xFlGPyU-pBzjdn1cpenI-16" value="" style="edgeStyle=none;curved=1;rounded=0;orthogonalLoop=1;jettySize=auto;html=1;fontSize=12;startSize=8;endSize=8;" edge="1" parent="1" source="xFlGPyU-pBzjdn1cpenI-13" target="xFlGPyU-pBzjdn1cpenI-15">
          <mxGeometry relative="1" as="geometry" />
        </mxCell>
        <mxCell id="xFlGPyU-pBzjdn1cpenI-13" value="j &amp;lt; 3-i" style="rhombus;whiteSpace=wrap;html=1;strokeWidth=2;" vertex="1" parent="1">
          <mxGeometry x="330" y="-31" width="80" height="80" as="geometry" />
        </mxCell>
        <mxCell id="xFlGPyU-pBzjdn1cpenI-19" value="" style="edgeStyle=none;curved=1;rounded=0;orthogonalLoop=1;jettySize=auto;html=1;fontSize=12;startSize=8;endSize=8;" edge="1" parent="1" source="xFlGPyU-pBzjdn1cpenI-15" target="xFlGPyU-pBzjdn1cpenI-18">
          <mxGeometry relative="1" as="geometry" />
        </mxCell>
        <mxCell id="xFlGPyU-pBzjdn1cpenI-15" value="&quot; &quot; 출력" style="shape=parallelogram;perimeter=parallelogramPerimeter;whiteSpace=wrap;html=1;fixedSize=1;strokeWidth=2;" vertex="1" parent="1">
          <mxGeometry x="310" y="96" width="120" height="60" as="geometry" />
        </mxCell>
        <mxCell id="xFlGPyU-pBzjdn1cpenI-17" value="YES" style="text;html=1;align=center;verticalAlign=middle;resizable=0;points=[];autosize=1;strokeColor=none;fillColor=none;fontSize=16;" vertex="1" parent="1">
          <mxGeometry x="370" y="43" width="50" height="31" as="geometry" />
        </mxCell>
        <mxCell id="xFlGPyU-pBzjdn1cpenI-18" value="j++" style="whiteSpace=wrap;html=1;strokeWidth=2;" vertex="1" parent="1">
          <mxGeometry x="310" y="223" width="120" height="60" as="geometry" />
        </mxCell>
        <mxCell id="xFlGPyU-pBzjdn1cpenI-28" value="" style="edgeStyle=none;curved=1;rounded=0;orthogonalLoop=1;jettySize=auto;html=1;fontSize=12;startSize=8;endSize=8;" edge="1" parent="1" source="xFlGPyU-pBzjdn1cpenI-20" target="xFlGPyU-pBzjdn1cpenI-27">
          <mxGeometry relative="1" as="geometry" />
        </mxCell>
        <mxCell id="xFlGPyU-pBzjdn1cpenI-20" value="k = 0&amp;nbsp;" style="whiteSpace=wrap;html=1;strokeWidth=2;" vertex="1" parent="1">
          <mxGeometry x="310" y="346" width="120" height="60" as="geometry" />
        </mxCell>
        <mxCell id="xFlGPyU-pBzjdn1cpenI-22" value="" style="edgeStyle=none;curved=0;rounded=0;orthogonalLoop=1;jettySize=auto;html=1;fontSize=12;startSize=8;endSize=8;exitX=1;exitY=0.5;exitDx=0;exitDy=0;entryX=1;entryY=0.5;entryDx=0;entryDy=0;" edge="1" parent="1" source="xFlGPyU-pBzjdn1cpenI-18" target="xFlGPyU-pBzjdn1cpenI-13">
          <mxGeometry relative="1" as="geometry">
            <mxPoint x="380" y="-76" as="sourcePoint" />
            <mxPoint x="380" y="-21" as="targetPoint" />
            <Array as="points">
              <mxPoint x="533" y="255" />
              <mxPoint x="531" y="11" />
            </Array>
          </mxGeometry>
        </mxCell>
        <mxCell id="xFlGPyU-pBzjdn1cpenI-23" value="" style="edgeStyle=none;curved=0;rounded=0;orthogonalLoop=1;jettySize=auto;html=1;fontSize=12;startSize=8;endSize=8;exitX=0;exitY=0.5;exitDx=0;exitDy=0;" edge="1" parent="1" source="xFlGPyU-pBzjdn1cpenI-13">
          <mxGeometry relative="1" as="geometry">
            <mxPoint x="380" y="166" as="sourcePoint" />
            <mxPoint x="307" y="376" as="targetPoint" />
            <Array as="points">
              <mxPoint x="211" y="9" />
              <mxPoint x="217" y="376" />
            </Array>
          </mxGeometry>
        </mxCell>
        <mxCell id="xFlGPyU-pBzjdn1cpenI-24" value="NO" style="text;html=1;align=center;verticalAlign=middle;resizable=0;points=[];autosize=1;strokeColor=none;fillColor=none;fontSize=16;" vertex="1" parent="1">
          <mxGeometry x="291.5" y="-22.5" width="42" height="31" as="geometry" />
        </mxCell>
        <mxCell id="xFlGPyU-pBzjdn1cpenI-30" value="" style="edgeStyle=none;curved=1;rounded=0;orthogonalLoop=1;jettySize=auto;html=1;fontSize=12;startSize=8;endSize=8;" edge="1" parent="1" source="xFlGPyU-pBzjdn1cpenI-27" target="xFlGPyU-pBzjdn1cpenI-29">
          <mxGeometry relative="1" as="geometry" />
        </mxCell>
        <mxCell id="xFlGPyU-pBzjdn1cpenI-27" value="k&amp;lt;=2*i" style="rhombus;whiteSpace=wrap;html=1;strokeWidth=2;" vertex="1" parent="1">
          <mxGeometry x="330" y="456" width="80" height="80" as="geometry" />
        </mxCell>
        <mxCell id="xFlGPyU-pBzjdn1cpenI-32" value="" style="edgeStyle=none;curved=1;rounded=0;orthogonalLoop=1;jettySize=auto;html=1;fontSize=12;startSize=8;endSize=8;" edge="1" parent="1" source="xFlGPyU-pBzjdn1cpenI-29" target="xFlGPyU-pBzjdn1cpenI-31">
          <mxGeometry relative="1" as="geometry" />
        </mxCell>
        <mxCell id="xFlGPyU-pBzjdn1cpenI-29" value="&quot;*&quot; 출력" style="shape=parallelogram;perimeter=parallelogramPerimeter;whiteSpace=wrap;html=1;fixedSize=1;strokeWidth=2;" vertex="1" parent="1">
          <mxGeometry x="310" y="583" width="120" height="60" as="geometry" />
        </mxCell>
        <mxCell id="xFlGPyU-pBzjdn1cpenI-31" value="k++" style="whiteSpace=wrap;html=1;strokeWidth=2;" vertex="1" parent="1">
          <mxGeometry x="310" y="711" width="120" height="60" as="geometry" />
        </mxCell>
        <mxCell id="xFlGPyU-pBzjdn1cpenI-33" value="" style="edgeStyle=none;curved=0;rounded=0;orthogonalLoop=1;jettySize=auto;html=1;fontSize=12;startSize=8;endSize=8;exitX=1;exitY=0.5;exitDx=0;exitDy=0;entryX=1;entryY=0.5;entryDx=0;entryDy=0;" edge="1" parent="1" source="xFlGPyU-pBzjdn1cpenI-31" target="xFlGPyU-pBzjdn1cpenI-27">
          <mxGeometry relative="1" as="geometry">
            <mxPoint x="380" y="653" as="sourcePoint" />
            <mxPoint x="380" y="721" as="targetPoint" />
            <Array as="points">
              <mxPoint x="534" y="741" />
              <mxPoint x="530" y="496" />
            </Array>
          </mxGeometry>
        </mxCell>
        <mxCell id="xFlGPyU-pBzjdn1cpenI-34" value="YES" style="text;html=1;align=center;verticalAlign=middle;resizable=0;points=[];autosize=1;strokeColor=none;fillColor=none;fontSize=16;" vertex="1" parent="1">
          <mxGeometry x="370" y="528.5" width="50" height="31" as="geometry" />
        </mxCell>
        <mxCell id="xFlGPyU-pBzjdn1cpenI-38" value="" style="edgeStyle=none;curved=1;rounded=0;orthogonalLoop=1;jettySize=auto;html=1;fontSize=12;startSize=8;endSize=8;" edge="1" parent="1" source="xFlGPyU-pBzjdn1cpenI-35" target="xFlGPyU-pBzjdn1cpenI-37">
          <mxGeometry relative="1" as="geometry" />
        </mxCell>
        <mxCell id="xFlGPyU-pBzjdn1cpenI-35" value="개행문자출력" style="shape=parallelogram;perimeter=parallelogramPerimeter;whiteSpace=wrap;html=1;fixedSize=1;strokeWidth=2;" vertex="1" parent="1">
          <mxGeometry x="310" y="859" width="120" height="60" as="geometry" />
        </mxCell>
        <mxCell id="xFlGPyU-pBzjdn1cpenI-37" value="i++" style="whiteSpace=wrap;html=1;strokeWidth=2;" vertex="1" parent="1">
          <mxGeometry x="310" y="974" width="120" height="60" as="geometry" />
        </mxCell>
        <mxCell id="xFlGPyU-pBzjdn1cpenI-39" value="" style="edgeStyle=none;curved=0;rounded=0;orthogonalLoop=1;jettySize=auto;html=1;fontSize=12;startSize=8;endSize=8;exitX=0;exitY=0.5;exitDx=0;exitDy=0;entryX=0;entryY=0.5;entryDx=0;entryDy=0;" edge="1" parent="1" source="xFlGPyU-pBzjdn1cpenI-27" target="xFlGPyU-pBzjdn1cpenI-35">
          <mxGeometry relative="1" as="geometry">
            <mxPoint x="380" y="653" as="sourcePoint" />
            <mxPoint x="380" y="721" as="targetPoint" />
            <Array as="points">
              <mxPoint x="204" y="496" />
              <mxPoint x="209" y="889" />
            </Array>
          </mxGeometry>
        </mxCell>
        <mxCell id="xFlGPyU-pBzjdn1cpenI-40" value="NO" style="text;html=1;align=center;verticalAlign=middle;resizable=0;points=[];autosize=1;strokeColor=none;fillColor=none;fontSize=16;" vertex="1" parent="1">
          <mxGeometry x="295" y="466" width="42" height="31" as="geometry" />
        </mxCell>
        <mxCell id="xFlGPyU-pBzjdn1cpenI-41" value="" style="edgeStyle=none;curved=0;rounded=0;orthogonalLoop=1;jettySize=auto;html=1;fontSize=12;startSize=8;endSize=8;exitX=1;exitY=0.5;exitDx=0;exitDy=0;entryX=1;entryY=0.5;entryDx=0;entryDy=0;" edge="1" parent="1" source="xFlGPyU-pBzjdn1cpenI-37" target="xFlGPyU-pBzjdn1cpenI-7">
          <mxGeometry relative="1" as="geometry">
            <mxPoint x="380" y="929" as="sourcePoint" />
            <mxPoint x="380" y="984" as="targetPoint" />
            <Array as="points">
              <mxPoint x="645" y="1004" />
              <mxPoint x="627" y="-248" />
            </Array>
          </mxGeometry>
        </mxCell>
        <mxCell id="xFlGPyU-pBzjdn1cpenI-43" value="" style="edgeStyle=none;curved=0;rounded=0;orthogonalLoop=1;jettySize=auto;html=1;fontSize=12;startSize=8;endSize=8;exitX=0;exitY=0.5;exitDx=0;exitDy=0;" edge="1" parent="1" source="xFlGPyU-pBzjdn1cpenI-7" target="xFlGPyU-pBzjdn1cpenI-4">
          <mxGeometry relative="1" as="geometry">
            <mxPoint x="380" y="-198" as="sourcePoint" />
            <mxPoint x="380" y="-136" as="targetPoint" />
            <Array as="points">
              <mxPoint x="117" y="-248" />
              <mxPoint x="135" y="1202" />
            </Array>
          </mxGeometry>
        </mxCell>
        <mxCell id="xFlGPyU-pBzjdn1cpenI-44" value="NO" style="text;html=1;align=center;verticalAlign=middle;resizable=0;points=[];autosize=1;strokeColor=none;fillColor=none;fontSize=16;" vertex="1" parent="1">
          <mxGeometry x="281" y="-282" width="42" height="31" as="geometry" />
        </mxCell>
      </root>
    </mxGraphModel>
  </diagram>
</mxfile>
